<svg width="29" height="25" viewBox="0 0 29 25" fill="none" xmlns="http://www.w3.org/2000/svg">
<path d="M14.3034 15.5C14.3034 17.5613 14.2317 19.2175 12.3726 20.5" stroke="black"/>
<path d="M14.3749 9.2832C14.3174 5.84012 14.2486 4.01297 15.7512 3.50049" stroke="black"/>
<path d="M0.806396 4C0.806396 2.067 2.3734 0.5 4.3064 0.5H24.3006C26.2336 0.5 27.8006 2.067 27.8006 4V21C27.8006 22.933 26.2336 24.5 24.3006 24.5H4.3064C2.3734 24.5 0.806396 22.933 0.806396 21V4Z" stroke="black"/>
<path d="M3.70239 5C3.70239 4.17157 4.37397 3.5 5.20239 3.5H23.4047C24.2331 3.5 24.9047 4.17157 24.9047 5V19C24.9047 19.8284 24.2331 20.5 23.4047 20.5H5.20239C4.37396 20.5 3.70239 19.8284 3.70239 19V5Z" stroke="black"/>
<path d="M3.70239 7.5H10.4249V16.5H3.70239V7.5Z" stroke="black"/>
<path d="M3.70239 12.5H10.4249V16.5H3.70239V12.5Z" stroke="black"/>
<path d="M9.95947 9H18.6473M18.6473 15H9.95947" stroke="black"/>
<path d="M18.1821 12.5H24.9047V16.5H18.1821V12.5Z" stroke="black"/>
<path d="M18.1821 7.5H24.9047V16.5H18.1821V7.5Z" stroke="black"/>
</svg>
