<svg width="33" height="33" viewBox="0 0 33 33" fill="none" xmlns="http://www.w3.org/2000/svg">
<path fill-rule="evenodd" clip-rule="evenodd" d="M17.2627 6.28602C16.8009 5.97811 16.1991 5.97811 15.7373 6.28602L6.11229 12.7027C5.72976 12.9577 5.5 13.387 5.5 13.8468V26.125C5.5 26.8844 6.11561 27.5 6.875 27.5H11V22C11 19.7218 12.8468 17.875 15.125 17.875H17.875C20.1532 17.875 22 19.7218 22 22V27.5H26.125C26.8844 27.5 27.5 26.8844 27.5 26.125V13.8468C27.5 13.387 27.2702 12.9577 26.8877 12.7027L17.2627 6.28602ZM14.2119 3.99788C15.5974 3.07415 17.4026 3.07415 18.7881 3.99788L28.4131 10.4145C29.5607 11.1796 30.25 12.4675 30.25 13.8468V26.125C30.25 28.4032 28.4032 30.25 26.125 30.25H20.625C19.8656 30.25 19.25 29.6344 19.25 28.875V22C19.25 21.2406 18.6344 20.625 17.875 20.625H15.125C14.3656 20.625 13.75 21.2406 13.75 22V28.875C13.75 29.6344 13.1344 30.25 12.375 30.25H6.875C4.59683 30.25 2.75 28.4032 2.75 26.125V13.8468C2.75 12.4675 3.43929 11.1796 4.58686 10.4145L14.2119 3.99788Z" fill="black"/>
</svg>
