<svg width="27" height="28" viewBox="0 0 27 28" fill="none" xmlns="http://www.w3.org/2000/svg">
<path d="M13.5226 23.1966C10.9013 23.1966 8.2801 22.7804 5.79385 21.9479C4.84885 21.6216 4.12885 20.9579 3.81385 20.0916C3.4876 19.2254 3.6001 18.2691 4.1176 17.4141L5.41135 15.2654C5.68135 14.8154 5.92885 13.9154 5.92885 13.3866V10.1354C5.92885 5.95037 9.3376 2.54163 13.5226 2.54163C17.7076 2.54163 21.1163 5.95037 21.1163 10.1354V13.3866C21.1163 13.9041 21.3638 14.8154 21.6338 15.2766L22.9163 17.4141C23.4001 18.2241 23.4901 19.2029 23.1638 20.0916C22.8376 20.9804 22.1288 21.6554 21.2401 21.9479C18.7651 22.7804 16.1438 23.1966 13.5226 23.1966ZM13.5226 4.22913C10.2713 4.22913 7.61635 6.87287 7.61635 10.1354V13.3866C7.61635 14.2079 7.27885 15.4229 6.8626 16.1316L5.56885 18.2804C5.32135 18.6966 5.25385 19.1354 5.4001 19.5066C5.5351 19.8891 5.8726 20.1816 6.33385 20.3391C11.0363 21.9141 16.0201 21.9141 20.7226 20.3391C21.1276 20.2041 21.4426 19.9004 21.5888 19.4954C21.7351 19.0904 21.7013 18.6516 21.4763 18.2804L20.1826 16.1316C19.7551 15.4004 19.4288 14.1966 19.4288 13.3754V10.1354C19.4288 6.87287 16.7851 4.22913 13.5226 4.22913Z" fill="black"/>
<path d="M15.6149 4.53286C15.5362 4.53286 15.4574 4.52161 15.3787 4.49911C15.0524 4.40911 14.7374 4.34161 14.4337 4.29661C13.4774 4.17286 12.5549 4.24036 11.6887 4.49911C11.3737 4.60036 11.0362 4.49911 10.8224 4.26286C10.6087 4.02661 10.5412 3.68911 10.6649 3.38536C11.1262 2.20411 12.2512 1.42786 13.5337 1.42786C14.8162 1.42786 15.9412 2.19286 16.4024 3.38536C16.5149 3.68911 16.4587 4.02661 16.2449 4.26286C16.0762 4.44286 15.8399 4.53286 15.6149 4.53286Z" fill="black"/>
<path d="M13.5227 25.7616C12.409 25.7616 11.329 25.3116 10.5415 24.5241C9.75395 23.7366 9.30396 22.6566 9.30396 21.5428H10.9915C10.9915 22.2066 11.2615 22.8591 11.734 23.3316C12.2065 23.8041 12.859 24.0741 13.5227 24.0741C14.9177 24.0741 16.054 22.9378 16.054 21.5428H17.7415C17.7415 23.8716 15.8515 25.7616 13.5227 25.7616Z" fill="black"/>
</svg>
