<svg width="33" height="33" viewBox="0 0 33 33" fill="none" xmlns="http://www.w3.org/2000/svg">
<path fill-rule="evenodd" clip-rule="evenodd" d="M13.8846 4.97479C14.7078 2.44117 18.2922 2.44119 19.1154 4.97479L20.8948 10.4511L26.6529 10.4511C29.3169 10.4511 30.4245 13.8601 28.2693 15.4259L23.6109 18.8105L25.3902 24.2868C26.2135 26.8204 23.3136 28.9272 21.1584 27.3614L16.5 23.9768L11.8415 27.3614C9.68633 28.9272 6.78652 26.8204 7.60973 24.2868L9.3891 18.8105L4.73066 15.4259C2.57544 13.86 3.68309 10.4511 6.34707 10.4511H12.1052L13.8846 4.97479ZM16.5 5.82458L14.7206 11.3009C14.3525 12.434 13.2966 13.2011 12.1052 13.2011H6.34707L11.0055 16.5857C11.9693 17.2859 12.3727 18.5272 12.0045 19.6603L10.2251 25.1366L14.8836 21.752C15.8474 21.0518 17.1526 21.0518 18.1164 21.752L22.7748 25.1366L20.9955 19.6603C20.6273 18.5272 21.0306 17.2859 21.9945 16.5857L26.6529 13.2011H20.8948C19.7034 13.2011 18.6475 12.434 18.2794 11.3009L16.5 5.82458Z" fill="black"/>
</svg>
